<svg id="Layer_1" data-name="Layer 1" xmlns="http://www.w3.org/2000/svg" viewBox="0 0 1027 1027"><defs><style>.cls-1{fill:#fff;stroke:#000;stroke-miterlimit:10;stroke-width:3px;}</style></defs><title>logo</title><path class="cls-1" d="M874,150C777.33,53.26,648.77,0,512,0S246.67,53.26,150,150,0,375.25,0,512,53.26,777.33,150,874s225.26,150,362,150,265.33-53.26,362-150,150-225.28,150-362S970.74,246.67,874,150ZM512,943.87C273.86,943.87,80.13,750.14,80.13,512S273.86,80.13,512,80.13,943.87,273.86,943.87,512,750.14,943.87,512,943.87Z" transform="translate(1.5 1.5)"/><path class="cls-1" d="M512,455.8c-.84,0-1.67,0-2.51.06a153.76,153.76,0,1,0-53.63,53.63c0,.84-.06,1.67-.06,2.51A56.2,56.2,0,1,0,512,455.8Z" transform="translate(1.5 1.5)"/></svg>